<svg xmlns="http://www.w3.org/2000/svg" viewBox="0 0 512 512">
<rect width="512" height="512" rx="112" fill="#0d1117"/>
<rect width="512" height="4" rx="2" fill="url(#g1)"/>
<defs><linearGradient id="g1" x1="0%" y1="0%" x2="100%" y2="0%"><stop offset="0%" stop-color="#39d0d8"/><stop offset="50%" stop-color="#bc8cff"/><stop offset="100%" stop-color="#39d0d8"/></linearGradient></defs>
<rect x="70" y="80" width="372" height="352" rx="24" fill="#161b22" stroke="#30363d" stroke-width="1.5"/>
<rect x="106" y="136" width="160" height="18" rx="9" fill="#39d0d8" opacity=".9"/>
<rect x="106" y="174" width="270" height="14" rx="7" fill="#21262d"/>
<rect x="106" y="204" width="240" height="14" rx="7" fill="#21262d"/>
<rect x="106" y="234" width="255" height="14" rx="7" fill="#21262d"/>
<rect x="106" y="264" width="220" height="14" rx="7" fill="#21262d"/>
<rect x="106" y="294" width="245" height="14" rx="7" fill="#21262d"/>
<rect x="106" y="324" width="200" height="14" rx="7" fill="#21262d"/>
<circle cx="376" cy="181" r="19" fill="#56d364"/>
<polyline points="367,181 374,188 387,173" fill="none" stroke="white" stroke-width="3.5" stroke-linecap="round" stroke-linejoin="round"/>
<circle cx="376" cy="241" r="19" fill="#56d364"/>
<polyline points="367,241 374,248 387,233" fill="none" stroke="white" stroke-width="3.5" stroke-linecap="round" stroke-linejoin="round"/>
<circle cx="376" cy="211" r="19" fill="#21262d" stroke="#30363d" stroke-width="2"/>
<circle cx="376" cy="271" r="19" fill="#21262d" stroke="#30363d" stroke-width="2"/>
<circle cx="376" cy="301" r="19" fill="#21262d" stroke="#30363d" stroke-width="2"/>
<circle cx="376" cy="331" r="19" fill="#21262d" stroke="#30363d" stroke-width="2"/>
</svg>